# xmcd
#
# Track frame offsets:
# 150
# 13191
# 28605
# 39952
# 52004
# 68419
# 87141
# 104571
# 123742
# 136152
# 152779
# 172152
# 189954
# 205615
# 232598
# 245566
# 263813
# 274127
#
# Disc length: 3932 seconds
#
#
# Revision: 0
# Processed by: cddbd v1.5.1PL2 Copyright (c) Steve Scherf et al.
# Submitted via: FreeRIP 2.945 
#
DISCID=f00f5a12
DTITLE=Minuano - Grupo Minuano (Ao VIVO)
DYEAR=2002
DGENRE=Anime
TTITLE0=Abertura
TTITLE1=Segura essa danada
TTITLE2=sacudindo a poeira
TTITLE3=chacoalhando a gurizada
TTITLE4=requebra e gira
TTITLE5=gaitiro socador
TTITLE6=pegando fogo
TTITLE7=casamento da doralicia
TTITLE8=nossa vaneira
TTITLE9=nossa pegada - forrozinho (incidental)
TTITLE10=reencontro
TTITLE11=amor de verão
TTITLE12=de uma chance ao meu coração
TTITLE13=milonga abaixo de mau tempo
TTITLE14=balança que balança - a xula (incidental)
TTITLE15=linda mulher
TTITLE16=fim-de-semana
TTITLE17=descendo a serra - o gaitaço vai pegar (incidental)
EXTD=
EXTT0=
EXTT1=
EXTT2=
EXTT3=
EXTT4=
EXTT5=
EXTT6=
EXTT7=
EXTT8=
EXTT9=
EXTT10=
EXTT11=
EXTT12=
EXTT13=
EXTT14=
EXTT15=
EXTT16=
EXTT17=
PLAYORDER=
